<svg style="position: absolute; width: 0; height: 0; overflow: hidden;" version="1.1" xmlns="http://www.w3.org/2000/svg" xmlns:xlink="http://www.w3.org/1999/xlink">
<defs>
<symbol id="shapes">
<g>
	<defs>
		<rect id="SVGID_1_" width="49.9" height="10"/>
	</defs>
	<clipPath id="SVGID_2_">
		<use xlink:href="#SVGID_1_"  style="overflow:visible;"/>
	</clipPath>

	<polygon style="fill:#547BF1;" points="44.95,0 39.999,4.95 44.95,9.9 49.899,4.951 49.899,4.949 "/>
	<path style="clip-path:url(#SVGID_2_);fill:#FF655F;" d="M25,0c2.762,0,5,2.239,5,5c0,2.761-2.238,5-5,5c-2.761,0-5-2.239-5-5
		C20,2.239,22.239,0,25,0"/>
	<polygon style="clip-path:url(#SVGID_2_);fill:#A15FFF;" points="10,0 0,10 10,10 	"/>
</g>
</symbol>
<symbol id="feature-1">
	<svg version="1.1" id="Layer_1" xmlns="http://www.w3.org/2000/svg" xmlns:xlink="http://www.w3.org/1999/xlink" x="0px" y="0px"
	 width="80px" height="80.003px" viewBox="0 0 80 80.003" style="enable-background:new 0 0 80 80.003;" xml:space="preserve">
<g>
	<defs>
		<rect id="SVGID_1_" width="80" height="80.003"/>
	</defs>
	<clipPath id="SVGID_2_">
		<use xlink:href="#SVGID_1_"  style="overflow:visible;"/>
	</clipPath>
	<path style="clip-path:url(#SVGID_2_);fill:#E0EDFF;" d="M78.923,22.778C77.502,11.436,68.569,2.502,57.228,1.08
		C51.485,0.36,45.742,0,40.002,0C34.243,0.001,28.49,0.362,22.776,1.08v0.002C11.436,2.504,2.504,11.436,1.08,22.776
		C0.36,28.518,0,34.261,0,40.001c0.001,2.033,0.063,4.064,0.153,6.094l14.109-14.108H3.326c-1.381,0-2.5-1.119-2.5-2.5
		c0-1.38,1.119-2.5,2.5-2.5h16.971c1.38,0,2.5,1.12,2.5,2.5v16.971c0,1.381-1.12,2.5-2.5,2.5c-1.381,0-2.5-1.119-2.5-2.5V35.522
		L0.594,52.725c0.14,1.503,0.3,3.005,0.489,4.503c0.594,4.74,2.515,9.05,5.361,12.575l37.818-37.816H33.326
		c-1.381,0-2.5-1.119-2.5-2.5c0-1.38,1.119-2.5,2.5-2.5h16.971c1.381,0,2.5,1.12,2.5,2.5v16.971c0,1.381-1.119,2.5-2.5,2.5
		s-2.5-1.119-2.5-2.5V35.521L9.952,73.366c3.571,2.957,7.973,4.948,12.824,5.557c1.367,0.171,2.733,0.319,4.099,0.45l17.386-17.386
		H33.326c-1.381,0-2.5-1.119-2.5-2.5s1.119-2.5,2.5-2.5h16.971c1.381,0,2.5,1.119,2.5,2.5v16.97c0,1.381-1.119,2.5-2.5,2.5
		s-2.5-1.119-2.5-2.5V65.521l-14.31,14.311c2.172,0.103,4.343,0.171,6.515,0.171c5.758-0.001,11.51-0.363,17.223-1.08
		c11.342-1.421,20.276-10.354,21.698-21.695C80.36,45.789,80.36,34.216,78.923,22.778"/>
	<path style="clip-path:url(#SVGID_2_);fill:#6363B7;" d="M50.297,26.987H33.326c-1.381,0-2.5,1.119-2.5,2.5
		c0,1.381,1.119,2.5,2.5,2.5h10.936L6.444,69.804c1.05,1.301,2.222,2.496,3.508,3.562l37.845-37.844v10.936
		c0,1.381,1.119,2.5,2.5,2.5s2.5-1.119,2.5-2.5v-16.97C52.797,28.105,51.678,26.987,50.297,26.987"/>
	<path style="clip-path:url(#SVGID_2_);fill:#6363B7;" d="M50.297,56.987H33.326c-1.381,0-2.5,1.119-2.5,2.5s1.119,2.5,2.5,2.5
		h10.935L26.875,79.373c2.204,0.21,4.408,0.354,6.612,0.459l14.31-14.311v10.936c0,1.381,1.119,2.5,2.5,2.5s2.5-1.119,2.5-2.5
		v-16.97C52.797,58.106,51.678,56.987,50.297,56.987"/>
	<path style="clip-path:url(#SVGID_2_);fill:#6363B7;" d="M17.796,46.457c0,1.381,1.119,2.5,2.5,2.5s2.5-1.119,2.5-2.5v-16.97
		c0-1.381-1.119-2.5-2.5-2.5H3.325c-1.381,0-2.5,1.119-2.5,2.5s1.119,2.5,2.5,2.5h10.936L0.152,46.096
		c0.099,2.213,0.237,4.423,0.441,6.629l17.203-17.203V46.457z"/>
</g>
</svg>
</symbol>
<symbol id="feature-2">

<g>
	<defs>
		<rect id="SVGID_1_" width="80" height="80.003"/>
	</defs>
	<clipPath id="SVGID_2_">
		<use xlink:href="#SVGID_1_"  style="overflow:visible;"/>
	</clipPath>
	<path style="clip-path:url(#SVGID_2_);fill:#E8FAF0;" d="M22.776,1.08C28.49,0.362,34.243,0.001,40.002,0
		c5.74,0,11.482,0.36,17.226,1.08c11.342,1.422,20.274,10.356,21.695,21.698c1.437,11.438,1.437,23.011,0,34.449
		c-1.422,11.343-10.356,20.275-21.698,21.696c-5.713,0.718-11.465,1.079-17.223,1.08c-5.741,0-11.483-0.36-17.226-1.08
		C11.436,77.5,2.505,68.567,1.083,57.227C0.364,51.514,0.002,45.761,0,40.001c0-5.74,0.36-11.483,1.08-17.225
		C2.504,11.435,11.436,2.504,22.776,1.082V1.08z"/>
	<path style="clip-path:url(#SVGID_2_);fill:#27CF68;" d="M41.643,56.079v3.423h-3.286v-3.244c-3.4-0.059-6.919-0.862-9.857-2.363
		l1.496-5.342c3.141,1.205,7.323,2.486,10.596,1.755c3.775-0.846,4.547-4.687,0.374-6.537c-3.058-1.409-12.413-2.615-12.413-10.539
		c0-4.43,3.414-8.395,9.804-9.263v-3.468h3.286v3.309c2.379,0.062,5.047,0.471,8.024,1.365l-1.189,5.353
		c-2.522-0.878-5.313-1.674-8.027-1.511c-4.893,0.282-5.323,4.472-1.91,6.227C44.166,37.86,51.5,39.8,51.5,46.771
		C51.507,52.354,47.087,55.325,41.643,56.079"/>
</g>

</symbol>

<symbol id="feature-3">
	<g>
	<defs>
		<rect id="SVGID_1_" width="80" height="80.003"/>
	</defs>
	<clipPath id="SVGID_2_">
		<use xlink:href="#SVGID_1_"  style="overflow:visible;"/>
	</clipPath>
	<path style="clip-path:url(#SVGID_2_);fill:#CCEAFD;" d="M22.776,1.08C28.49,0.362,34.243,0.001,40.002,0
		c5.74,0,11.482,0.36,17.226,1.08c11.342,1.422,20.274,10.356,21.695,21.698c1.437,11.438,1.437,23.011,0,34.449
		c-1.422,11.343-10.356,20.275-21.698,21.696c-5.713,0.718-11.465,1.079-17.223,1.08c-5.741,0-11.483-0.36-17.226-1.08
		C11.436,77.5,2.505,68.567,1.083,57.227C0.364,51.514,0.002,45.761,0,40.001c0-5.74,0.36-11.483,1.08-17.225
		C2.504,11.435,11.436,2.504,22.776,1.082V1.08z"/>
	<polygon style="clip-path:url(#SVGID_2_);fill:#0095F7;" points="33.875,59.397 15.5,41.578 23.083,33.99 33.875,44.224 
		56.917,20.605 64.5,28.188 	"/>
</g>
</symbol>
<symbol id="feature-4">
	<g>
	<defs>
		<rect id="SVGID_1_" width="80" height="80.003"/>
	</defs>
	<clipPath id="SVGID_2_">
		<use xlink:href="#SVGID_1_"  style="overflow:visible;"/>
	</clipPath>
	<g style="clip-path:url(#SVGID_2_);">
		<defs>
			<rect id="SVGID_3_" width="80" height="80.003"/>
		</defs>
		<clipPath id="SVGID_4_">
			<use xlink:href="#SVGID_3_"  style="overflow:visible;"/>
		</clipPath>
		<path style="clip-path:url(#SVGID_4_);fill:#FBE9E7;" d="M22.776,1.08C28.49,0.362,34.243,0.001,40.002,0
			c5.74,0,11.482,0.36,17.226,1.08c11.342,1.422,20.274,10.356,21.695,21.698c1.437,11.438,1.437,23.011,0,34.449
			c-1.422,11.343-10.356,20.275-21.698,21.696c-5.713,0.718-11.465,1.079-17.223,1.08c-5.741,0-11.483-0.36-17.226-1.08
			C11.436,77.5,2.505,68.567,1.083,57.227C0.364,51.514,0.002,45.761,0,40.001c0-5.74,0.36-11.483,1.08-17.225
			C2.504,11.435,11.436,2.504,22.776,1.082V1.08z"/>
		<path style="clip-path:url(#SVGID_4_);fill:#FBE9E7;" d="M40,10.001c16.568,0,30,13.432,30,30c0,16.569-13.432,30-30,30
			c-16.568,0-30-13.431-30-30C10,23.433,23.432,10.001,40,10.001"/>
		<defs>
			<filter id="Adobe_OpacityMaskFilter" filterUnits="userSpaceOnUse" x="12" y="10.001" width="54.993" height="60">
				<feColorMatrix  type="matrix" values="1 0 0 0 0  0 1 0 0 0  0 0 1 0 0  0 0 0 1 0"/>
			</filter>
		</defs>
		<mask maskUnits="userSpaceOnUse" x="12" y="10.001" width="54.993" height="60" id="SVGID_5_">
			<g style="filter:url(#Adobe_OpacityMaskFilter);">
				<rect x="12" y="10.002" style="clip-path:url(#SVGID_4_);" width="54.993" height="60"/>
				<g style="enable-background:new    ;">
					<g>
						<defs>
							<rect id="SVGID_6_" x="12" y="10.001" width="54.993" height="60"/>
						</defs>
						<clipPath id="SVGID_7_" style="clip-path:url(#SVGID_4_);">
							<use xlink:href="#SVGID_6_"  style="overflow:visible;"/>
						</clipPath>
						<path style="clip-path:url(#SVGID_7_);fill:#FFFFFF;" d="M40,10.001c16.568,0,30,13.432,30,30c0,16.569-13.432,30-30,30
							c-16.568,0-30-13.431-30-30C10,23.434,23.432,10.001,40,10.001"/>
					</g>
				</g>
			</g>
		</mask>
		<g style="clip-path:url(#SVGID_4_);mask:url(#SVGID_5_);">
			<g>
				<defs>
					<rect id="SVGID_8_" x="12" y="10.001" width="54.993" height="60"/>
				</defs>
				<clipPath id="SVGID_9_">
					<use xlink:href="#SVGID_8_"  style="overflow:visible;"/>
				</clipPath>
				<path style="clip-path:url(#SVGID_9_);fill:#FF7043;" d="M66.99,70.002H12.015L12,61.368c0-5.685,0.458-8.968,7.278-10.521
					c7.718-1.756,15.326-3.323,11.664-9.973c-10.844-19.699-3.089-30.873,8.552-30.873c11.417,0,19.369,10.759,8.553,30.877
					c-3.553,6.609,3.785,8.182,11.664,9.974c6.829,1.552,7.282,4.839,7.282,10.533L66.99,70.002z"/>
			</g>
		</g>
	</g>
</g>
</symbol>
<symbol id="feature-5">
	<g>
	<defs>
		<rect id="SVGID_1_" width="80" height="80.003"/>
	</defs>
	<clipPath id="SVGID_2_">
		<use xlink:href="#SVGID_1_"  style="overflow:visible;"/>
	</clipPath>
	<g style="clip-path:url(#SVGID_2_);">
		<defs>
			<rect id="SVGID_3_" width="80" height="80.003"/>
		</defs>
		<clipPath id="SVGID_4_">
			<use xlink:href="#SVGID_3_"  style="overflow:visible;"/>
		</clipPath>
		<g style="opacity:0.1;clip-path:url(#SVGID_4_);">
			<g>
				<defs>
					<rect id="SVGID_5_" width="80" height="80.003"/>
				</defs>
				<clipPath id="SVGID_6_">
					<use xlink:href="#SVGID_5_"  style="overflow:visible;"/>
				</clipPath>
				<path style="clip-path:url(#SVGID_6_);fill:#0095F7;" d="M22.776,1.08C28.49,0.361,34.243,0.001,40.002,0
					c5.74,0,11.482,0.359,17.226,1.08c11.342,1.422,20.274,10.355,21.695,21.698c1.437,11.438,1.437,23.011,0,34.448
					c-1.422,11.343-10.356,20.275-21.698,21.696c-5.713,0.719-11.465,1.078-17.223,1.08c-5.741,0-11.483-0.359-17.226-1.08
					C11.436,77.499,2.505,68.567,1.083,57.227C0.364,51.514,0.002,45.76,0,40.001c0-5.74,0.36-11.483,1.08-17.226
					C2.504,11.435,11.436,2.504,22.776,1.082V1.08z"/>
			</g>
		</g>
		<g style="opacity:0.26;clip-path:url(#SVGID_4_);">
			<g>
				<defs>
					<rect id="SVGID_7_" x="5.459" y="27.441" width="69.082" height="26.087"/>
				</defs>
				<clipPath id="SVGID_8_">
					<use xlink:href="#SVGID_7_"  style="overflow:visible;"/>
				</clipPath>
				<path style="clip-path:url(#SVGID_8_);fill:#0095F7;" d="M18.502,27.44h42.996c7.203,0,13.043,5.84,13.043,13.044
					c0,7.204-5.84,13.042-13.043,13.042H18.502c-7.204,0-13.043-5.839-13.043-13.042C5.459,33.281,11.298,27.44,18.502,27.44"/>
			</g>
		</g>
		<g style="opacity:0.26;clip-path:url(#SVGID_4_);">
			<g>
				<defs>
					<rect id="SVGID_9_" x="32.029" y="35.654" width="30.918" height="4.348"/>
				</defs>
				<clipPath id="SVGID_10_">
					<use xlink:href="#SVGID_9_"  style="overflow:visible;"/>
				</clipPath>
				<path style="clip-path:url(#SVGID_10_);fill:#0095F7;" d="M34.203,35.653h26.569c1.201,0,2.175,0.974,2.175,2.174
					c0,1.201-0.974,2.174-2.175,2.174H34.203c-1.201,0-2.174-0.973-2.174-2.174C32.029,36.627,33.002,35.653,34.203,35.653"/>
			</g>
		</g>
		<g style="opacity:0.26;clip-path:url(#SVGID_4_);">
			<g>
				<defs>
					<rect id="SVGID_11_" x="32.029" y="41.451" width="19.324" height="4.348"/>
				</defs>
				<clipPath id="SVGID_12_">
					<use xlink:href="#SVGID_11_"  style="overflow:visible;"/>
				</clipPath>
				<path style="clip-path:url(#SVGID_12_);fill:#0095F7;" d="M34.203,41.45h14.976c1.2,0,2.174,0.975,2.174,2.174
					c0,1.201-0.974,2.176-2.174,2.176H34.203c-1.201,0-2.174-0.975-2.174-2.176C32.029,42.425,33.002,41.45,34.203,41.45"/>
			</g>
		</g>
		<path style="clip-path:url(#SVGID_4_);fill:#0095F7;" d="M18.502,31.789c4.802,0,8.696,3.893,8.696,8.695
			c0,4.803-3.894,8.696-8.696,8.696c-4.803,0-8.696-3.894-8.696-8.696C9.807,35.682,13.699,31.789,18.502,31.789"/>
	</g>
</g>
</symbol>
<symbol id="feature-6">
	<g>
	<defs>
		<rect id="SVGID_1_" width="80" height="80.003"/>
	</defs>
	<clipPath id="SVGID_2_">
		<use xlink:href="#SVGID_1_"  style="overflow:visible;"/>
	</clipPath>
	<path style="clip-path:url(#SVGID_2_);fill:#F3E5F5;" d="M22.776,1.08C28.49,0.362,34.243,0.001,40.002,0
		c5.74,0,11.482,0.36,17.226,1.08c11.342,1.423,20.274,10.356,21.695,21.698c1.437,11.439,1.437,23.011,0,34.449
		c-1.422,11.343-10.356,20.275-21.698,21.696c-5.713,0.718-11.465,1.079-17.223,1.08c-5.741,0-11.483-0.36-17.226-1.08
		C11.436,77.5,2.505,68.567,1.083,57.227C0.364,51.514,0.002,45.761,0,40.002c0-5.74,0.36-11.484,1.08-17.226
		C2.504,11.435,11.436,2.505,22.776,1.083V1.08z"/>
	<polygon style="clip-path:url(#SVGID_2_);fill:#E1BEE7;" points="15.138,59.541 27.699,64.68 27.699,23.884 15.138,18.745 	"/>
	<polygon style="clip-path:url(#SVGID_2_);fill:#E1BEE7;" points="40.258,59.541 52.818,64.68 52.818,23.884 40.258,18.745 	"/>
	<polygon style="clip-path:url(#SVGID_2_);fill:#CE93D8;" points="40.258,59.541 27.698,64.68 27.698,23.884 40.258,18.745 	"/>
	<polygon style="clip-path:url(#SVGID_2_);fill:#CE93D8;" points="65.379,59.541 52.818,64.68 52.818,23.884 65.379,18.745 	"/>
	<path style="clip-path:url(#SVGID_2_);fill:#AB47BC;" d="M56.469,37.983l2.119-3.263l3.264,2.119l0.898-1.384l-3.263-2.119
		l2.119-3.263l-1.385-0.9l-2.119,3.263l-3.263-2.119l-0.899,1.385l3.264,2.119l-2.119,3.264L56.469,37.983z M40.135,53.474
		L39.517,51.9l-2.593,0.722l0.347,1.631L40.135,53.474z M28.813,47.868l1.812-0.386l-0.52-2.446l-1.812,0.385L28.813,47.868z
		 M30.621,51.916l1.6-0.937l-1.284-2.028l-1.742,0.711L30.621,51.916z M24.49,42.224l0.304-1.684l-2.856-0.076l-0.015,1.708
		L24.49,42.224z M27.671,44.275l1.367-1.144l-2.172-1.754l-1.133,1.349L27.671,44.275z M34.993,54.226l0.611-1.579l-2.468-0.924
		l-0.81,1.534L34.993,54.226z M45.557,38.002l-1.438-0.973l-1.504,2.279l1.584,0.772L45.557,38.002z M43.747,49.979l-1.511-0.872
		l-1.556,2.035l1.455,1.055L43.747,49.979z M50.908,36.011l2.718-0.577l-0.347-1.632l-2.718,0.578L50.908,36.011z M49.17,36.296
		l-0.438-1.612l-2.738,0.923l0.708,1.554L49.17,36.296z M42.753,47.974l1.807,0.042l-0.084-2.624l-1.847,0.222L42.753,47.974z
		 M43.791,41.275l-1.864,0.14l0.266,2.586l1.829-0.303L43.791,41.275z"/>
</g>
</symbol>
<symbol id="feature-7">
	<g>
	<defs>
		<rect id="SVGID_1_" width="80" height="80.003"/>
	</defs>
	<clipPath id="SVGID_2_">
		<use xlink:href="#SVGID_1_"  style="overflow:visible;"/>
	</clipPath>
	<path style="clip-path:url(#SVGID_2_);fill:#F3EFFF;" d="M22.776,1.08C28.49,0.362,34.243,0.001,40.002,0
		c5.74,0,11.482,0.36,17.226,1.08c11.342,1.423,20.274,10.356,21.695,21.698c1.437,11.439,1.437,23.011,0,34.449
		c-1.422,11.343-10.356,20.275-21.698,21.696c-5.713,0.718-11.465,1.079-17.223,1.08c-5.741,0-11.483-0.36-17.226-1.08
		C11.436,77.5,2.505,68.567,1.083,57.227C0.364,51.514,0.002,45.761,0,40.002c0-5.74,0.36-11.484,1.08-17.226
		C2.504,11.435,11.436,2.505,22.776,1.083V1.08z"/>
	<path style="clip-path:url(#SVGID_2_);fill:#C8B7FF;" d="M62.753,43.272c0.729,0.137,0.729,1.201,0.004,1.342
		c-6.88,1.302-21.808,4.008-23.619,4.008c-2.594,0-4.694-2.1-4.694-4.693c0-1.848,2.778-19.65,4.059-26.858
		c0.123-0.693,1.125-0.652,1.237,0.051l3.554,22.504L62.753,43.272z"/>
</g>
</symbol>
<symbol id="feature-8">
	<g>
	<defs>
		<rect id="SVGID_1_" width="80" height="80.003"/>
	</defs>
	<clipPath id="SVGID_2_">
		<use xlink:href="#SVGID_1_"  style="overflow:visible;"/>
	</clipPath>
	<g style="clip-path:url(#SVGID_2_);">
		<defs>
			<rect id="SVGID_3_" width="80" height="80.003"/>
		</defs>
		<clipPath id="SVGID_4_">
			<use xlink:href="#SVGID_3_"  style="overflow:visible;"/>
		</clipPath>
		<g style="opacity:0.2;clip-path:url(#SVGID_4_);">
			<g>
				<defs>
					<rect id="SVGID_5_" width="80" height="80.003"/>
				</defs>
				<clipPath id="SVGID_6_">
					<use xlink:href="#SVGID_5_"  style="overflow:visible;"/>
				</clipPath>
				<path style="clip-path:url(#SVGID_6_);fill:#F8E71C;" d="M22.776,1.08C28.49,0.362,34.243,0.001,40.002,0
					c5.74,0,11.482,0.36,17.225,1.08c11.342,1.423,20.275,10.356,21.696,21.698c1.436,11.439,1.436,23.011,0,34.449
					c-1.422,11.343-10.356,20.275-21.698,21.696c-5.713,0.718-11.466,1.079-17.223,1.08c-5.741,0-11.483-0.36-17.226-1.08
					C11.436,77.5,2.505,68.567,1.083,57.227C0.364,51.514,0.002,45.761,0,40.002c0-5.74,0.36-11.484,1.08-17.226
					C2.504,11.435,11.436,2.505,22.776,1.083V1.08z"/>
			</g>
		</g>
		<path style="clip-path:url(#SVGID_4_);fill:#FFCA28;" d="M42.813,12.988c1.717-2.78,5.567-0.632,4.627,2.592l-5.688,18.373h10.437
			c2.164,0,3.392,2.78,2.078,4.713l-19.431,28.62c-1.823,2.686-5.572,0.371-4.523-2.789l6.199-19.187h-8.699
			c-2.105,0-3.351-2.663-2.15-4.604l17.165-27.722L42.813,12.988z"/>
		<polyline style="clip-path:url(#SVGID_4_);fill:#FFCA28;" points="45.746,16.643 30.128,43.541 41.58,43.541 34.645,65.998 
			52.34,38.224 39.847,38.224 		"/>
	</g>
</g>
</symbol>
<symbol id="feature-9">
	<g>
	<defs>
		<rect id="SVGID_1_" width="80" height="80.003"/>
	</defs>
	<clipPath id="SVGID_2_">
		<use xlink:href="#SVGID_1_"  style="overflow:visible;"/>
	</clipPath>
	<path style="clip-path:url(#SVGID_2_);fill:#E8F5E9;" d="M22.776,1.08C28.49,0.362,34.243,0.001,40.002,0
		c5.74,0,11.482,0.36,17.226,1.08c11.342,1.422,20.274,10.356,21.695,21.698c1.437,11.438,1.437,23.011,0,34.449
		c-1.422,11.343-10.356,20.275-21.698,21.696c-5.713,0.718-11.465,1.079-17.223,1.08c-5.741,0-11.483-0.36-17.226-1.08
		C11.436,77.5,2.505,68.567,1.083,57.227C0.364,51.514,0.002,45.761,0,40.001c0-5.74,0.36-11.483,1.08-17.225
		C2.504,11.435,11.436,2.504,22.776,1.082V1.08z"/>
	<path style="clip-path:url(#SVGID_2_);fill:#A5D6A7;" d="M40,18.78c4.728,0,8.56,3.833,8.56,8.56c0,4.728-3.832,8.56-8.56,8.56
		c-4.728,0-8.56-3.832-8.56-8.56C31.44,22.613,35.272,18.78,40,18.78"/>
	<path style="clip-path:url(#SVGID_2_);fill:#66BB6A;" d="M32.153,39.11h15.693c2.758,0,4.993,2.236,4.993,4.994v12.126
		c0,2.757-2.235,4.993-4.993,4.993H32.153c-2.757,0-4.993-2.236-4.993-4.993V44.104C27.16,41.346,29.396,39.11,32.153,39.11"/>
</g>
</symbol>
<symbol id="feature-10">
	<g>
	<defs>
		<rect id="SVGID_1_" width="80" height="80.003"/>
	</defs>
	<clipPath id="SVGID_2_">
		<use xlink:href="#SVGID_1_"  style="overflow:visible;"/>
	</clipPath>
	<path style="clip-path:url(#SVGID_2_);fill:#ECEFF1;" d="M22.776,1.08C28.49,0.362,34.243,0.002,40.002,0
		c5.74,0,11.482,0.36,17.226,1.08c11.342,1.423,20.274,10.356,21.695,21.698c1.437,11.439,1.437,23.011,0,34.449
		c-1.422,11.342-10.356,20.275-21.698,21.696c-5.713,0.719-11.465,1.079-17.223,1.08c-5.741,0-11.483-0.36-17.226-1.08
		C11.436,77.5,2.505,68.566,1.083,57.227C0.364,51.514,0.002,45.761,0,40.002c0-5.74,0.36-11.484,1.08-17.226
		C2.504,11.435,11.436,2.505,22.776,1.083V1.08z"/>
	
		<line style="clip-path:url(#SVGID_2_);fill:none;stroke:#78909C;stroke-width:6;stroke-linecap:square;" x1="46.354" y1="47.06" x2="53.962" y2="54.665"/>
	
		<line style="clip-path:url(#SVGID_2_);fill:none;stroke:#78909C;stroke-width:6;stroke-linecap:square;" x1="40.242" y1="23.554" x2="40.242" y2="34.182"/>
	
		<line style="clip-path:url(#SVGID_2_);fill:none;stroke:#CFD8DC;stroke-width:6;stroke-linecap:square;" x1="34.128" y1="47.06" x2="26.521" y2="54.665"/>
	<path style="clip-path:url(#SVGID_2_);fill:#78909C;" d="M59.323,54.956c2.802,0,5.073,2.271,5.073,5.071
		c0,2.803-2.271,5.073-5.073,5.073c-2.801,0-5.072-2.271-5.072-5.073C54.251,57.227,56.522,54.956,59.323,54.956"/>
	<path style="clip-path:url(#SVGID_2_);fill:#CFD8DC;" d="M21.159,54.956c2.802,0,5.073,2.271,5.073,5.071
		c0,2.803-2.271,5.073-5.073,5.073c-2.801,0-5.072-2.271-5.072-5.073C16.087,57.227,18.358,54.956,21.159,54.956"/>
	<path style="clip-path:url(#SVGID_2_);fill:#78909C;" d="M40,10.511c2.802,0,5.072,2.271,5.072,5.072
		c0,2.802-2.271,5.073-5.072,5.073c-2.801,0-5.072-2.271-5.072-5.073C34.928,12.782,37.199,10.511,40,10.511"/>
	<path style="clip-path:url(#SVGID_2_);fill:#78909C;" d="M40,36.598c2.802,0,5.072,2.271,5.072,5.072
		c0,2.803-2.271,5.073-5.072,5.073c-2.801,0-5.072-2.271-5.072-5.073C34.928,38.869,37.199,36.598,40,36.598"/>
</g>
</symbol>
<symbol id="feature-11">
	<g>
	<defs>
		<rect id="SVGID_1_" width="80" height="80.003"/>
	</defs>
	<clipPath id="SVGID_2_">
		<use xlink:href="#SVGID_1_"  style="overflow:visible;"/>
	</clipPath>
	<path style="clip-path:url(#SVGID_2_);fill:#FCE4EC;" d="M22.776,1.08C28.49,0.362,34.243,0.001,40.002,0
		c5.74,0,11.482,0.36,17.226,1.08c11.342,1.423,20.274,10.356,21.695,21.698c1.437,11.439,1.437,23.011,0,34.449
		c-1.422,11.343-10.356,20.275-21.698,21.696c-5.713,0.718-11.465,1.079-17.223,1.08c-5.741,0-11.483-0.36-17.226-1.08
		C11.436,77.5,2.505,68.567,1.083,57.227C0.364,51.514,0.002,45.761,0,40.002c0-5.74,0.36-11.484,1.08-17.226
		C2.504,11.435,11.436,2.505,22.776,1.083V1.08z"/>
	<path style="clip-path:url(#SVGID_2_);fill:#F8BBD0;" d="M54.251,19.074c0-2.2-1.793-3.985-4.003-3.985H30.235
		c-2.21,0-4.003,1.785-4.003,3.985v39.854c0,2.201,1.793,3.987,4.003,3.987h20.013c2.21,0,4.003-1.786,4.003-3.987V19.074z"/>
	<path style="clip-path:url(#SVGID_2_);fill:#EC407A;" d="M37.239,19.074h6.004c0.553,0,1.001,0.446,1.001,0.996
		c0,0.55-0.448,0.996-1.001,0.996h-6.004c-0.552,0-1-0.446-1-0.996C36.239,19.52,36.688,19.074,37.239,19.074"/>
	<path style="clip-path:url(#SVGID_2_);fill:#EC407A;" d="M40.242,58.929c-1.107,0-2.001-0.894-2.001-1.992
		c0-1.101,0.894-1.993,2.001-1.993c1.104,0,2,0.893,2,1.993C42.242,58.035,41.347,58.929,40.242,58.929"/>
	<rect x="30.235" y="25.005" style="clip-path:url(#SVGID_2_);fill:#EC407A;" width="20.013" height="27.946"/>
</g>
</symbol>
<symbol id="feature-12">
	<g>
	<defs>
		<rect id="SVGID_1_" width="80" height="80.003"/>
	</defs>
	<clipPath id="SVGID_2_">
		<use xlink:href="#SVGID_1_"  style="overflow:visible;"/>
	</clipPath>
	<path style="clip-path:url(#SVGID_2_);fill:#B2DFDB;" d="M22.776,1.08C28.489,0.361,34.243,0.001,40.002,0
		c5.74,0,11.482,0.359,17.226,1.079c11.342,1.423,20.274,10.356,21.694,21.699c1.438,11.438,1.438,23.011,0,34.448
		c-1.421,11.342-10.354,20.274-21.698,21.697c-5.713,0.718-11.465,1.077-17.222,1.08c-5.741,0-11.483-0.361-17.226-1.08
		C11.436,77.499,2.505,68.567,1.083,57.227C0.363,51.514,0.002,45.761,0,40.001c0-5.74,0.36-11.483,1.08-17.226
		C2.503,11.436,11.436,2.504,22.776,1.083V1.08z"/>
	<path style="clip-path:url(#SVGID_2_);fill:#26A69A;" d="M26.511,43.22l10.878-5.387l-11.148-9.507l3.446-1.707l18.045,6.092
		l8.62-4.267c2.271-1.14,6.026-0.834,6.88,0.887c0.136,0.276,0.195,0.585,0.195,0.917c-0.005,1.758-1.769,4.143-3.662,5.093
		l-8.62,4.269l-6.091,18.043l-3.449,1.706l-0.803-14.63l-10.875,5.387l-2.247,5.404l-2.411,1.192l-0.843-8.169l-5.987-5.621
		l2.412-1.195L26.511,43.22z"/>
</g>
</symbol>
</defs>
</svg>






















